<mxfile host="Electron" agent="Mozilla/5.0 (Windows NT 10.0; Win64; x64) AppleWebKit/537.36 (KHTML, like Gecko) draw.io/24.7.17 Chrome/128.0.6613.36 Electron/32.0.1 Safari/537.36" version="24.7.17">
  <diagram name="Page-1" id="D4k1P8KBZMgiFusO5wSe">
    <mxGraphModel dx="2284" dy="836" grid="1" gridSize="12" guides="1" tooltips="1" connect="1" arrows="1" fold="1" page="1" pageScale="1" pageWidth="850" pageHeight="1100" math="0" shadow="0">
      <root>
        <mxCell id="0" />
        <mxCell id="1" parent="0" />
        <mxCell id="lqawrA6Ue8hp0J3bOHnK-28" style="edgeStyle=none;shape=connector;rounded=0;orthogonalLoop=1;jettySize=auto;html=1;entryX=0.5;entryY=0;entryDx=0;entryDy=0;strokeColor=default;align=center;verticalAlign=middle;fontFamily=Helvetica;fontSize=11;fontColor=default;labelBackgroundColor=default;endArrow=none;endFill=0;" parent="1" source="lqawrA6Ue8hp0J3bOHnK-3" target="lqawrA6Ue8hp0J3bOHnK-27" edge="1">
          <mxGeometry relative="1" as="geometry" />
        </mxCell>
        <mxCell id="lqawrA6Ue8hp0J3bOHnK-3" value="Учесник" style="whiteSpace=wrap;html=1;align=center;" parent="1" vertex="1">
          <mxGeometry x="148" y="84" width="100" height="40" as="geometry" />
        </mxCell>
        <mxCell id="lqawrA6Ue8hp0J3bOHnK-8" value="име" style="ellipse;whiteSpace=wrap;html=1;align=center;" parent="1" vertex="1">
          <mxGeometry x="-18" y="112" width="100" height="40" as="geometry" />
        </mxCell>
        <mxCell id="lqawrA6Ue8hp0J3bOHnK-9" style="rounded=0;orthogonalLoop=1;jettySize=auto;html=1;entryX=0;entryY=0.5;entryDx=0;entryDy=0;endArrow=none;endFill=0;" parent="1" source="lqawrA6Ue8hp0J3bOHnK-8" target="lqawrA6Ue8hp0J3bOHnK-3" edge="1">
          <mxGeometry relative="1" as="geometry">
            <Array as="points" />
          </mxGeometry>
        </mxCell>
        <mxCell id="lqawrA6Ue8hp0J3bOHnK-11" value="" style="edgeStyle=none;shape=connector;rounded=0;orthogonalLoop=1;jettySize=auto;html=1;strokeColor=default;align=center;verticalAlign=middle;fontFamily=Helvetica;fontSize=11;fontColor=default;labelBackgroundColor=default;endArrow=none;endFill=0;" parent="1" source="lqawrA6Ue8hp0J3bOHnK-10" target="lqawrA6Ue8hp0J3bOHnK-3" edge="1">
          <mxGeometry relative="1" as="geometry" />
        </mxCell>
        <mxCell id="lqawrA6Ue8hp0J3bOHnK-10" value="презиме" style="ellipse;whiteSpace=wrap;html=1;align=center;" parent="1" vertex="1">
          <mxGeometry x="-4" y="64" width="100" height="40" as="geometry" />
        </mxCell>
        <mxCell id="lqawrA6Ue8hp0J3bOHnK-12" value="пол" style="ellipse;whiteSpace=wrap;html=1;align=center;" parent="1" vertex="1">
          <mxGeometry x="62.24" y="24" width="100" height="40" as="geometry" />
        </mxCell>
        <mxCell id="lqawrA6Ue8hp0J3bOHnK-15" style="edgeStyle=none;shape=connector;rounded=0;orthogonalLoop=1;jettySize=auto;html=1;strokeColor=default;align=center;verticalAlign=middle;fontFamily=Helvetica;fontSize=11;fontColor=default;labelBackgroundColor=default;endArrow=none;endFill=0;" parent="1" source="lqawrA6Ue8hp0J3bOHnK-14" target="lqawrA6Ue8hp0J3bOHnK-3" edge="1">
          <mxGeometry relative="1" as="geometry" />
        </mxCell>
        <mxCell id="lqawrA6Ue8hp0J3bOHnK-14" value="&lt;u&gt;број_пасош&lt;/u&gt;" style="ellipse;whiteSpace=wrap;html=1;align=center;" parent="1" vertex="1">
          <mxGeometry x="158" y="12" width="100" height="40" as="geometry" />
        </mxCell>
        <mxCell id="lqawrA6Ue8hp0J3bOHnK-16" style="edgeStyle=none;shape=connector;rounded=0;orthogonalLoop=1;jettySize=auto;html=1;entryX=0.13;entryY=0.075;entryDx=0;entryDy=0;entryPerimeter=0;strokeColor=default;align=center;verticalAlign=middle;fontFamily=Helvetica;fontSize=11;fontColor=default;labelBackgroundColor=default;endArrow=none;endFill=0;" parent="1" source="lqawrA6Ue8hp0J3bOHnK-12" target="lqawrA6Ue8hp0J3bOHnK-3" edge="1">
          <mxGeometry relative="1" as="geometry" />
        </mxCell>
        <mxCell id="lqawrA6Ue8hp0J3bOHnK-17" value="држава" style="ellipse;whiteSpace=wrap;html=1;align=center;" parent="1" vertex="1">
          <mxGeometry x="258" y="36" width="100" height="40" as="geometry" />
        </mxCell>
        <mxCell id="lqawrA6Ue8hp0J3bOHnK-18" style="edgeStyle=none;shape=connector;rounded=0;orthogonalLoop=1;jettySize=auto;html=1;entryX=0.634;entryY=0.055;entryDx=0;entryDy=0;entryPerimeter=0;strokeColor=default;align=center;verticalAlign=middle;fontFamily=Helvetica;fontSize=11;fontColor=default;labelBackgroundColor=default;endArrow=none;endFill=0;" parent="1" source="lqawrA6Ue8hp0J3bOHnK-17" target="lqawrA6Ue8hp0J3bOHnK-3" edge="1">
          <mxGeometry relative="1" as="geometry" />
        </mxCell>
        <mxCell id="lqawrA6Ue8hp0J3bOHnK-20" style="edgeStyle=none;shape=connector;rounded=0;orthogonalLoop=1;jettySize=auto;html=1;entryX=1;entryY=0;entryDx=0;entryDy=0;strokeColor=default;align=center;verticalAlign=middle;fontFamily=Helvetica;fontSize=11;fontColor=default;labelBackgroundColor=default;endArrow=none;endFill=0;" parent="1" source="lqawrA6Ue8hp0J3bOHnK-19" target="lqawrA6Ue8hp0J3bOHnK-3" edge="1">
          <mxGeometry relative="1" as="geometry" />
        </mxCell>
        <mxCell id="lqawrA6Ue8hp0J3bOHnK-19" value="датум_раѓање" style="ellipse;whiteSpace=wrap;html=1;align=center;" parent="1" vertex="1">
          <mxGeometry x="314" y="76" width="100" height="40" as="geometry" />
        </mxCell>
        <mxCell id="lqawrA6Ue8hp0J3bOHnK-36" style="edgeStyle=none;shape=connector;rounded=0;orthogonalLoop=1;jettySize=auto;html=1;strokeColor=default;align=center;verticalAlign=middle;fontFamily=Helvetica;fontSize=11;fontColor=default;labelBackgroundColor=default;endArrow=none;endFill=0;" parent="1" source="lqawrA6Ue8hp0J3bOHnK-22" target="lqawrA6Ue8hp0J3bOHnK-35" edge="1">
          <mxGeometry relative="1" as="geometry" />
        </mxCell>
        <mxCell id="lqawrA6Ue8hp0J3bOHnK-57" style="edgeStyle=none;shape=connector;rounded=0;orthogonalLoop=1;jettySize=auto;html=1;entryX=0.5;entryY=0;entryDx=0;entryDy=0;strokeColor=default;align=center;verticalAlign=middle;fontFamily=Helvetica;fontSize=11;fontColor=default;labelBackgroundColor=default;endArrow=none;endFill=0;" parent="1" source="lqawrA6Ue8hp0J3bOHnK-22" target="lqawrA6Ue8hp0J3bOHnK-56" edge="1">
          <mxGeometry relative="1" as="geometry" />
        </mxCell>
        <mxCell id="8VeTdL72EI9J1DGAZN1l-18" style="edgeStyle=orthogonalEdgeStyle;shape=connector;rounded=0;orthogonalLoop=1;jettySize=auto;html=1;strokeColor=default;align=center;verticalAlign=middle;fontFamily=Helvetica;fontSize=11;fontColor=default;labelBackgroundColor=default;endArrow=none;endFill=0;entryX=0.073;entryY=0.53;entryDx=0;entryDy=0;entryPerimeter=0;" parent="1" source="lqawrA6Ue8hp0J3bOHnK-22" target="8VeTdL72EI9J1DGAZN1l-19" edge="1">
          <mxGeometry relative="1" as="geometry">
            <mxPoint x="144" y="480" as="targetPoint" />
            <Array as="points">
              <mxPoint x="110" y="432" />
              <mxPoint x="145" y="432" />
              <mxPoint x="145" y="470" />
            </Array>
          </mxGeometry>
        </mxCell>
        <mxCell id="8VeTdL72EI9J1DGAZN1l-20" style="edgeStyle=orthogonalEdgeStyle;shape=connector;rounded=0;orthogonalLoop=1;jettySize=auto;html=1;strokeColor=default;align=center;verticalAlign=middle;fontFamily=Helvetica;fontSize=11;fontColor=default;labelBackgroundColor=default;endArrow=none;endFill=0;entryX=0;entryY=0.5;entryDx=0;entryDy=0;" parent="1" source="lqawrA6Ue8hp0J3bOHnK-22" target="8VeTdL72EI9J1DGAZN1l-21" edge="1">
          <mxGeometry relative="1" as="geometry">
            <mxPoint x="120" y="528" as="targetPoint" />
            <Array as="points">
              <mxPoint x="110" y="513" />
            </Array>
          </mxGeometry>
        </mxCell>
        <mxCell id="WKA5SGnIilvyst779cXG-5" style="rounded=0;orthogonalLoop=1;jettySize=auto;html=1;entryX=0.5;entryY=1;entryDx=0;entryDy=0;endArrow=none;endFill=0;" parent="1" source="lqawrA6Ue8hp0J3bOHnK-22" target="WKA5SGnIilvyst779cXG-3" edge="1">
          <mxGeometry relative="1" as="geometry" />
        </mxCell>
        <mxCell id="lqawrA6Ue8hp0J3bOHnK-22" value="Играч" style="whiteSpace=wrap;html=1;align=center;fontFamily=Helvetica;fontSize=11;fontColor=default;labelBackgroundColor=default;" parent="1" vertex="1">
          <mxGeometry x="62.24" y="324" width="100" height="40" as="geometry" />
        </mxCell>
        <mxCell id="lqawrA6Ue8hp0J3bOHnK-23" value="Тренер" style="whiteSpace=wrap;html=1;align=center;fontFamily=Helvetica;fontSize=11;fontColor=default;labelBackgroundColor=default;" parent="1" vertex="1">
          <mxGeometry x="192" y="324" width="100" height="40" as="geometry" />
        </mxCell>
        <mxCell id="lqawrA6Ue8hp0J3bOHnK-137" style="edgeStyle=none;shape=connector;rounded=0;orthogonalLoop=1;jettySize=auto;html=1;entryX=0;entryY=0;entryDx=0;entryDy=0;strokeColor=default;align=center;verticalAlign=middle;fontFamily=Helvetica;fontSize=11;fontColor=default;labelBackgroundColor=default;endArrow=none;endFill=0;" parent="1" source="lqawrA6Ue8hp0J3bOHnK-24" target="lqawrA6Ue8hp0J3bOHnK-136" edge="1">
          <mxGeometry relative="1" as="geometry" />
        </mxCell>
        <mxCell id="lqawrA6Ue8hp0J3bOHnK-24" value="Судија" style="whiteSpace=wrap;html=1;align=center;fontFamily=Helvetica;fontSize=11;fontColor=default;labelBackgroundColor=default;" parent="1" vertex="1">
          <mxGeometry x="325" y="324" width="100" height="40" as="geometry" />
        </mxCell>
        <mxCell id="WKA5SGnIilvyst779cXG-2" style="rounded=0;orthogonalLoop=1;jettySize=auto;html=1;entryX=0.5;entryY=0;entryDx=0;entryDy=0;endArrow=none;endFill=0;exitX=0;exitY=1;exitDx=0;exitDy=0;" parent="1" source="lqawrA6Ue8hp0J3bOHnK-27" target="WKA5SGnIilvyst779cXG-1" edge="1">
          <mxGeometry relative="1" as="geometry">
            <mxPoint x="198" y="228" as="sourcePoint" />
          </mxGeometry>
        </mxCell>
        <mxCell id="lqawrA6Ue8hp0J3bOHnK-27" value="d" style="ellipse;whiteSpace=wrap;html=1;align=center;fontFamily=Helvetica;fontSize=11;fontColor=default;labelBackgroundColor=default;" parent="1" vertex="1">
          <mxGeometry x="192" y="144" width="24" height="28" as="geometry" />
        </mxCell>
        <mxCell id="lqawrA6Ue8hp0J3bOHnK-31" style="edgeStyle=none;shape=connector;rounded=0;orthogonalLoop=1;jettySize=auto;html=1;entryX=0.36;entryY=-0.025;entryDx=0;entryDy=0;entryPerimeter=0;strokeColor=default;align=center;verticalAlign=middle;fontFamily=Helvetica;fontSize=11;fontColor=default;labelBackgroundColor=default;endArrow=none;endFill=0;" parent="1" source="lqawrA6Ue8hp0J3bOHnK-27" target="lqawrA6Ue8hp0J3bOHnK-24" edge="1">
          <mxGeometry relative="1" as="geometry" />
        </mxCell>
        <mxCell id="lqawrA6Ue8hp0J3bOHnK-32" value="" style="shape=step;perimeter=stepPerimeter;whiteSpace=wrap;html=1;fixedSize=1;fontFamily=Helvetica;fontSize=11;fontColor=default;labelBackgroundColor=default;rotation=45;" parent="1" vertex="1">
          <mxGeometry x="309.24" y="280.24" width="12" height="20" as="geometry" />
        </mxCell>
        <mxCell id="lqawrA6Ue8hp0J3bOHnK-35" value="тренира/л" style="shape=rhombus;perimeter=rhombusPerimeter;whiteSpace=wrap;html=1;align=center;fontFamily=Helvetica;fontSize=11;fontColor=default;labelBackgroundColor=default;" parent="1" vertex="1">
          <mxGeometry x="144" y="396" width="72" height="48" as="geometry" />
        </mxCell>
        <mxCell id="lqawrA6Ue8hp0J3bOHnK-37" style="edgeStyle=none;shape=connector;rounded=0;orthogonalLoop=1;jettySize=auto;html=1;entryX=0.833;entryY=0.25;entryDx=0;entryDy=0;entryPerimeter=0;strokeColor=default;align=center;verticalAlign=middle;fontFamily=Helvetica;fontSize=11;fontColor=default;labelBackgroundColor=default;endArrow=none;endFill=0;" parent="1" target="lqawrA6Ue8hp0J3bOHnK-35" edge="1">
          <mxGeometry relative="1" as="geometry">
            <mxPoint x="203.9760000000001" y="408" as="sourcePoint" />
          </mxGeometry>
        </mxCell>
        <mxCell id="lqawrA6Ue8hp0J3bOHnK-40" value="" style="edgeStyle=none;shape=connector;rounded=0;orthogonalLoop=1;jettySize=auto;html=1;strokeColor=default;align=center;verticalAlign=middle;fontFamily=Helvetica;fontSize=11;fontColor=default;labelBackgroundColor=default;endArrow=none;endFill=0;" parent="1" source="lqawrA6Ue8hp0J3bOHnK-23" edge="1">
          <mxGeometry relative="1" as="geometry">
            <mxPoint x="230" y="364" as="sourcePoint" />
            <mxPoint x="204" y="408" as="targetPoint" />
          </mxGeometry>
        </mxCell>
        <mxCell id="lqawrA6Ue8hp0J3bOHnK-41" value="M" style="text;html=1;align=center;verticalAlign=middle;resizable=0;points=[];autosize=1;strokeColor=none;fillColor=none;fontFamily=Helvetica;fontSize=11;fontColor=default;labelBackgroundColor=default;" parent="1" vertex="1">
          <mxGeometry x="180" y="384" width="36" height="24" as="geometry" />
        </mxCell>
        <mxCell id="lqawrA6Ue8hp0J3bOHnK-159" style="edgeStyle=none;shape=connector;rounded=0;orthogonalLoop=1;jettySize=auto;html=1;entryX=0.25;entryY=0;entryDx=0;entryDy=0;strokeColor=default;align=center;verticalAlign=middle;fontFamily=Helvetica;fontSize=11;fontColor=default;labelBackgroundColor=default;endArrow=none;endFill=0;" parent="1" source="lqawrA6Ue8hp0J3bOHnK-42" target="lqawrA6Ue8hp0J3bOHnK-22" edge="1">
          <mxGeometry relative="1" as="geometry" />
        </mxCell>
        <mxCell id="lqawrA6Ue8hp0J3bOHnK-42" value="година" style="ellipse;whiteSpace=wrap;html=1;align=center;" parent="1" vertex="1">
          <mxGeometry x="-8" y="236" width="100" height="40" as="geometry" />
        </mxCell>
        <mxCell id="lqawrA6Ue8hp0J3bOHnK-45" style="edgeStyle=none;shape=connector;rounded=0;orthogonalLoop=1;jettySize=auto;html=1;entryX=0;entryY=1;entryDx=0;entryDy=0;strokeColor=default;align=center;verticalAlign=middle;fontFamily=Helvetica;fontSize=11;fontColor=default;labelBackgroundColor=default;endArrow=none;endFill=0;" parent="1" source="lqawrA6Ue8hp0J3bOHnK-43" target="lqawrA6Ue8hp0J3bOHnK-22" edge="1">
          <mxGeometry relative="1" as="geometry" />
        </mxCell>
        <mxCell id="lqawrA6Ue8hp0J3bOHnK-43" value="&lt;u&gt;ранг&lt;/u&gt;" style="ellipse;whiteSpace=wrap;html=1;align=center;" parent="1" vertex="1">
          <mxGeometry x="-64" y="393" width="100" height="40" as="geometry" />
        </mxCell>
        <mxCell id="lqawrA6Ue8hp0J3bOHnK-49" value="старт" style="ellipse;whiteSpace=wrap;html=1;align=center;" parent="1" vertex="1">
          <mxGeometry x="-192" y="692" width="100" height="40" as="geometry" />
        </mxCell>
        <mxCell id="lqawrA6Ue8hp0J3bOHnK-50" value="крај" style="ellipse;whiteSpace=wrap;html=1;align=center;" parent="1" vertex="1">
          <mxGeometry x="-92" y="708" width="100" height="40" as="geometry" />
        </mxCell>
        <mxCell id="lqawrA6Ue8hp0J3bOHnK-58" style="edgeStyle=none;shape=link;rounded=0;orthogonalLoop=1;jettySize=auto;html=1;entryX=0.5;entryY=1;entryDx=0;entryDy=0;strokeColor=default;align=center;verticalAlign=middle;fontFamily=Helvetica;fontSize=11;fontColor=default;labelBackgroundColor=default;endArrow=none;endFill=0;" parent="1" target="lqawrA6Ue8hp0J3bOHnK-56" edge="1">
          <mxGeometry relative="1" as="geometry">
            <mxPoint x="-37.480916030534445" y="640" as="sourcePoint" />
          </mxGeometry>
        </mxCell>
        <mxCell id="lqawrA6Ue8hp0J3bOHnK-54" style="edgeStyle=none;shape=connector;rounded=0;orthogonalLoop=1;jettySize=auto;html=1;entryX=0.062;entryY=0.955;entryDx=0;entryDy=0;entryPerimeter=0;strokeColor=default;align=center;verticalAlign=middle;fontFamily=Helvetica;fontSize=11;fontColor=default;labelBackgroundColor=default;endArrow=none;endFill=0;" parent="1" source="lqawrA6Ue8hp0J3bOHnK-49" edge="1">
          <mxGeometry relative="1" as="geometry">
            <mxPoint x="-93.80000000000018" y="678.2" as="targetPoint" />
          </mxGeometry>
        </mxCell>
        <mxCell id="lqawrA6Ue8hp0J3bOHnK-55" style="edgeStyle=none;shape=connector;rounded=0;orthogonalLoop=1;jettySize=auto;html=1;entryX=0.582;entryY=0.955;entryDx=0;entryDy=0;entryPerimeter=0;strokeColor=default;align=center;verticalAlign=middle;fontFamily=Helvetica;fontSize=11;fontColor=default;labelBackgroundColor=default;endArrow=none;endFill=0;" parent="1" source="lqawrA6Ue8hp0J3bOHnK-50" edge="1">
          <mxGeometry relative="1" as="geometry">
            <mxPoint x="-41.80000000000018" y="678.2" as="targetPoint" />
          </mxGeometry>
        </mxCell>
        <mxCell id="lqawrA6Ue8hp0J3bOHnK-56" value="ранг" style="shape=rhombus;perimeter=rhombusPerimeter;whiteSpace=wrap;html=1;align=center;fontFamily=Helvetica;fontSize=11;fontColor=default;labelBackgroundColor=default;" parent="1" vertex="1">
          <mxGeometry x="-10" y="481" width="84" height="48" as="geometry" />
        </mxCell>
        <mxCell id="lqawrA6Ue8hp0J3bOHnK-59" value="1" style="text;html=1;align=center;verticalAlign=middle;resizable=0;points=[];autosize=1;strokeColor=none;fillColor=none;fontFamily=Helvetica;fontSize=11;fontColor=default;labelBackgroundColor=default;" parent="1" vertex="1">
          <mxGeometry x="32" y="465" width="36" height="24" as="geometry" />
        </mxCell>
        <mxCell id="lqawrA6Ue8hp0J3bOHnK-60" value="N" style="text;html=1;align=center;verticalAlign=middle;resizable=0;points=[];autosize=1;strokeColor=none;fillColor=none;fontFamily=Helvetica;fontSize=11;fontColor=default;labelBackgroundColor=default;" parent="1" vertex="1">
          <mxGeometry x="24" y="529" width="36" height="24" as="geometry" />
        </mxCell>
        <mxCell id="lqawrA6Ue8hp0J3bOHnK-62" style="edgeStyle=none;shape=connector;rounded=0;orthogonalLoop=1;jettySize=auto;html=1;entryX=1;entryY=0.5;entryDx=0;entryDy=0;strokeColor=default;align=center;verticalAlign=middle;fontFamily=Helvetica;fontSize=11;fontColor=default;labelBackgroundColor=default;endArrow=none;endFill=0;" parent="1" source="lqawrA6Ue8hp0J3bOHnK-61" target="lqawrA6Ue8hp0J3bOHnK-24" edge="1">
          <mxGeometry relative="1" as="geometry" />
        </mxCell>
        <mxCell id="lqawrA6Ue8hp0J3bOHnK-61" value="искуство_години" style="ellipse;whiteSpace=wrap;html=1;align=center;fontFamily=Helvetica;fontSize=11;fontColor=default;labelBackgroundColor=default;" parent="1" vertex="1">
          <mxGeometry x="396" y="276" width="100" height="40" as="geometry" />
        </mxCell>
        <mxCell id="lqawrA6Ue8hp0J3bOHnK-63" value="N" style="text;html=1;align=center;verticalAlign=middle;resizable=0;points=[];autosize=1;strokeColor=none;fillColor=none;fontFamily=Helvetica;fontSize=11;fontColor=default;labelBackgroundColor=default;" parent="1" vertex="1">
          <mxGeometry x="150.24" y="376" width="36" height="24" as="geometry" />
        </mxCell>
        <mxCell id="lqawrA6Ue8hp0J3bOHnK-88" style="edgeStyle=none;shape=link;rounded=0;orthogonalLoop=1;jettySize=auto;html=1;entryX=0.5;entryY=0;entryDx=0;entryDy=0;strokeColor=default;align=center;verticalAlign=middle;fontFamily=Helvetica;fontSize=11;fontColor=default;labelBackgroundColor=default;endArrow=none;endFill=0;" parent="1" source="lqawrA6Ue8hp0J3bOHnK-69" target="lqawrA6Ue8hp0J3bOHnK-87" edge="1">
          <mxGeometry relative="1" as="geometry" />
        </mxCell>
        <mxCell id="lqawrA6Ue8hp0J3bOHnK-69" value="Турнир" style="whiteSpace=wrap;html=1;align=center;fontFamily=Helvetica;fontSize=11;fontColor=default;labelBackgroundColor=default;" parent="1" vertex="1">
          <mxGeometry x="324" y="576" width="100" height="40" as="geometry" />
        </mxCell>
        <mxCell id="lqawrA6Ue8hp0J3bOHnK-145" style="edgeStyle=none;shape=connector;rounded=0;orthogonalLoop=1;jettySize=auto;html=1;entryX=0.75;entryY=1;entryDx=0;entryDy=0;strokeColor=default;align=center;verticalAlign=middle;fontFamily=Helvetica;fontSize=11;fontColor=default;labelBackgroundColor=default;endArrow=none;endFill=0;" parent="1" source="lqawrA6Ue8hp0J3bOHnK-70" target="lqawrA6Ue8hp0J3bOHnK-69" edge="1">
          <mxGeometry relative="1" as="geometry" />
        </mxCell>
        <mxCell id="lqawrA6Ue8hp0J3bOHnK-70" value="&lt;u&gt;име&lt;/u&gt;" style="ellipse;whiteSpace=wrap;html=1;align=center;fontFamily=Helvetica;fontSize=11;fontColor=default;labelBackgroundColor=default;" parent="1" vertex="1">
          <mxGeometry x="384" y="640" width="100" height="40" as="geometry" />
        </mxCell>
        <mxCell id="lqawrA6Ue8hp0J3bOHnK-89" style="edgeStyle=none;shape=connector;rounded=0;orthogonalLoop=1;jettySize=auto;html=1;entryX=0.5;entryY=1;entryDx=0;entryDy=0;strokeColor=default;align=center;verticalAlign=middle;fontFamily=Helvetica;fontSize=11;fontColor=default;labelBackgroundColor=default;endArrow=none;endFill=0;" parent="1" source="lqawrA6Ue8hp0J3bOHnK-78" target="lqawrA6Ue8hp0J3bOHnK-87" edge="1">
          <mxGeometry relative="1" as="geometry" />
        </mxCell>
        <mxCell id="lqawrA6Ue8hp0J3bOHnK-149" style="edgeStyle=orthogonalEdgeStyle;shape=connector;rounded=0;orthogonalLoop=1;jettySize=auto;html=1;entryX=0.5;entryY=1;entryDx=0;entryDy=0;strokeColor=default;align=center;verticalAlign=middle;fontFamily=Helvetica;fontSize=11;fontColor=default;labelBackgroundColor=default;endArrow=none;endFill=0;" parent="1" source="lqawrA6Ue8hp0J3bOHnK-78" target="lqawrA6Ue8hp0J3bOHnK-146" edge="1">
          <mxGeometry relative="1" as="geometry">
            <Array as="points">
              <mxPoint x="-408" y="768" />
            </Array>
          </mxGeometry>
        </mxCell>
        <mxCell id="lqawrA6Ue8hp0J3bOHnK-78" value="Терен" style="whiteSpace=wrap;html=1;align=center;fontFamily=Helvetica;fontSize=11;fontColor=default;labelBackgroundColor=default;" parent="1" vertex="1">
          <mxGeometry x="244" y="732" width="100" height="40" as="geometry" />
        </mxCell>
        <mxCell id="lqawrA6Ue8hp0J3bOHnK-86" style="edgeStyle=none;shape=connector;rounded=0;orthogonalLoop=1;jettySize=auto;html=1;entryX=1;entryY=0.75;entryDx=0;entryDy=0;strokeColor=default;align=center;verticalAlign=middle;fontFamily=Helvetica;fontSize=11;fontColor=default;labelBackgroundColor=default;endArrow=none;endFill=0;" parent="1" source="lqawrA6Ue8hp0J3bOHnK-85" target="lqawrA6Ue8hp0J3bOHnK-78" edge="1">
          <mxGeometry relative="1" as="geometry" />
        </mxCell>
        <mxCell id="lqawrA6Ue8hp0J3bOHnK-85" value="&lt;u&gt;број_седиште&lt;/u&gt;" style="ellipse;whiteSpace=wrap;html=1;align=center;fontFamily=Helvetica;fontSize=11;fontColor=default;labelBackgroundColor=default;" parent="1" vertex="1">
          <mxGeometry x="362" y="780" width="100" height="40" as="geometry" />
        </mxCell>
        <mxCell id="lqawrA6Ue8hp0J3bOHnK-87" value="одржува" style="shape=rhombus;perimeter=rhombusPerimeter;whiteSpace=wrap;html=1;align=center;fontFamily=Helvetica;fontSize=11;fontColor=default;labelBackgroundColor=default;" parent="1" vertex="1">
          <mxGeometry x="290" y="672" width="79.76" height="28" as="geometry" />
        </mxCell>
        <mxCell id="lqawrA6Ue8hp0J3bOHnK-90" value="N" style="text;html=1;align=center;verticalAlign=middle;resizable=0;points=[];autosize=1;strokeColor=none;fillColor=none;fontFamily=Helvetica;fontSize=11;fontColor=default;labelBackgroundColor=default;" parent="1" vertex="1">
          <mxGeometry x="326" y="648" width="36" height="24" as="geometry" />
        </mxCell>
        <mxCell id="lqawrA6Ue8hp0J3bOHnK-91" value="1" style="text;html=1;align=center;verticalAlign=middle;resizable=0;points=[];autosize=1;strokeColor=none;fillColor=none;fontFamily=Helvetica;fontSize=11;fontColor=default;labelBackgroundColor=default;" parent="1" vertex="1">
          <mxGeometry x="325" y="700" width="36" height="24" as="geometry" />
        </mxCell>
        <mxCell id="lqawrA6Ue8hp0J3bOHnK-92" value="&lt;u&gt;име&lt;/u&gt;" style="ellipse;whiteSpace=wrap;html=1;align=center;fontFamily=Helvetica;fontSize=11;fontColor=default;labelBackgroundColor=default;" parent="1" vertex="1">
          <mxGeometry x="130" y="804" width="100" height="40" as="geometry" />
        </mxCell>
        <mxCell id="lqawrA6Ue8hp0J3bOHnK-94" value="&lt;u&gt;тип&lt;/u&gt;" style="ellipse;whiteSpace=wrap;html=1;align=center;fontFamily=Helvetica;fontSize=11;fontColor=default;labelBackgroundColor=default;" parent="1" vertex="1">
          <mxGeometry x="244" y="804" width="100" height="40" as="geometry" />
        </mxCell>
        <mxCell id="lqawrA6Ue8hp0J3bOHnK-95" style="edgeStyle=none;shape=connector;rounded=0;orthogonalLoop=1;jettySize=auto;html=1;entryX=0.318;entryY=1.1;entryDx=0;entryDy=0;entryPerimeter=0;strokeColor=default;align=center;verticalAlign=middle;fontFamily=Helvetica;fontSize=11;fontColor=default;labelBackgroundColor=default;endArrow=none;endFill=0;" parent="1" source="lqawrA6Ue8hp0J3bOHnK-94" target="lqawrA6Ue8hp0J3bOHnK-78" edge="1">
          <mxGeometry relative="1" as="geometry" />
        </mxCell>
        <mxCell id="lqawrA6Ue8hp0J3bOHnK-99" style="edgeStyle=none;shape=connector;rounded=0;orthogonalLoop=1;jettySize=auto;html=1;strokeColor=default;align=center;verticalAlign=middle;fontFamily=Helvetica;fontSize=11;fontColor=default;labelBackgroundColor=default;endArrow=none;endFill=0;" parent="1" edge="1">
          <mxGeometry relative="1" as="geometry">
            <mxPoint x="708" y="665.27" as="targetPoint" />
            <mxPoint x="737.0029963301836" y="654.7234558799335" as="sourcePoint" />
          </mxGeometry>
        </mxCell>
        <mxCell id="lqawrA6Ue8hp0J3bOHnK-106" style="edgeStyle=none;shape=link;rounded=0;orthogonalLoop=1;jettySize=auto;html=1;strokeColor=default;align=center;verticalAlign=middle;fontFamily=Helvetica;fontSize=11;fontColor=default;labelBackgroundColor=default;endArrow=none;endFill=0;" parent="1" source="lqawrA6Ue8hp0J3bOHnK-101" target="lqawrA6Ue8hp0J3bOHnK-103" edge="1">
          <mxGeometry relative="1" as="geometry" />
        </mxCell>
        <mxCell id="lqawrA6Ue8hp0J3bOHnK-101" value="Одржан_турнир" style="shape=ext;margin=3;double=1;whiteSpace=wrap;html=1;align=center;fontFamily=Helvetica;fontSize=11;fontColor=default;labelBackgroundColor=default;" parent="1" vertex="1">
          <mxGeometry x="612" y="666" width="100" height="40" as="geometry" />
        </mxCell>
        <mxCell id="lqawrA6Ue8hp0J3bOHnK-103" value="одржување" style="shape=rhombus;double=1;perimeter=rhombusPerimeter;whiteSpace=wrap;html=1;align=center;fontFamily=Helvetica;fontSize=11;fontColor=default;labelBackgroundColor=default;" parent="1" vertex="1">
          <mxGeometry x="480" y="601" width="84" height="48" as="geometry" />
        </mxCell>
        <mxCell id="lqawrA6Ue8hp0J3bOHnK-105" style="edgeStyle=none;shape=link;rounded=0;orthogonalLoop=1;jettySize=auto;html=1;entryX=0.093;entryY=0.325;entryDx=0;entryDy=0;entryPerimeter=0;strokeColor=default;align=center;verticalAlign=middle;fontFamily=Helvetica;fontSize=11;fontColor=default;labelBackgroundColor=default;endArrow=none;endFill=0;" parent="1" target="lqawrA6Ue8hp0J3bOHnK-103" edge="1">
          <mxGeometry relative="1" as="geometry">
            <mxPoint x="424" y="605" as="sourcePoint" />
          </mxGeometry>
        </mxCell>
        <mxCell id="lqawrA6Ue8hp0J3bOHnK-107" value="N" style="text;html=1;align=center;verticalAlign=middle;resizable=0;points=[];autosize=1;strokeColor=none;fillColor=none;fontFamily=Helvetica;fontSize=11;fontColor=default;labelBackgroundColor=default;" parent="1" vertex="1">
          <mxGeometry x="562" y="616" width="36" height="24" as="geometry" />
        </mxCell>
        <mxCell id="lqawrA6Ue8hp0J3bOHnK-109" value="1" style="text;html=1;align=center;verticalAlign=middle;resizable=0;points=[];autosize=1;strokeColor=none;fillColor=none;fontFamily=Helvetica;fontSize=11;fontColor=default;labelBackgroundColor=default;" parent="1" vertex="1">
          <mxGeometry x="462" y="592" width="36" height="24" as="geometry" />
        </mxCell>
        <mxCell id="lqawrA6Ue8hp0J3bOHnK-113" style="edgeStyle=none;shape=connector;rounded=0;orthogonalLoop=1;jettySize=auto;html=1;entryX=0.886;entryY=1.01;entryDx=0;entryDy=0;entryPerimeter=0;strokeColor=default;align=center;verticalAlign=middle;fontFamily=Helvetica;fontSize=11;fontColor=default;labelBackgroundColor=default;endArrow=none;endFill=0;" parent="1" target="lqawrA6Ue8hp0J3bOHnK-101" edge="1">
          <mxGeometry relative="1" as="geometry">
            <mxPoint x="710.9303368617052" y="724.4963078039573" as="sourcePoint" />
          </mxGeometry>
        </mxCell>
        <mxCell id="lqawrA6Ue8hp0J3bOHnK-119" style="edgeStyle=none;shape=link;rounded=0;orthogonalLoop=1;jettySize=auto;html=1;entryX=1;entryY=0;entryDx=0;entryDy=0;strokeColor=default;align=center;verticalAlign=middle;fontFamily=Helvetica;fontSize=11;fontColor=default;labelBackgroundColor=default;endArrow=none;endFill=0;" parent="1" target="lqawrA6Ue8hp0J3bOHnK-117" edge="1">
          <mxGeometry relative="1" as="geometry">
            <mxPoint x="556.7213114754095" y="489" as="sourcePoint" />
          </mxGeometry>
        </mxCell>
        <mxCell id="lqawrA6Ue8hp0J3bOHnK-115" style="edgeStyle=none;shape=connector;rounded=0;orthogonalLoop=1;jettySize=auto;html=1;entryX=0.65;entryY=0.985;entryDx=0;entryDy=0;entryPerimeter=0;strokeColor=default;align=center;verticalAlign=middle;fontFamily=Helvetica;fontSize=11;fontColor=default;labelBackgroundColor=default;endArrow=none;endFill=0;" parent="1" source="lqawrA6Ue8hp0J3bOHnK-69" edge="1">
          <mxGeometry relative="1" as="geometry">
            <mxPoint x="370.2399999999998" y="549.4000000000001" as="targetPoint" />
          </mxGeometry>
        </mxCell>
        <mxCell id="lqawrA6Ue8hp0J3bOHnK-117" value="се_одржува" style="shape=rhombus;perimeter=rhombusPerimeter;whiteSpace=wrap;html=1;align=center;fontFamily=Helvetica;fontSize=11;fontColor=default;labelBackgroundColor=default;" parent="1" vertex="1">
          <mxGeometry x="568" y="540" width="84" height="44" as="geometry" />
        </mxCell>
        <mxCell id="lqawrA6Ue8hp0J3bOHnK-118" style="edgeStyle=none;shape=link;rounded=0;orthogonalLoop=1;jettySize=auto;html=1;entryX=0.155;entryY=0.727;entryDx=0;entryDy=0;entryPerimeter=0;strokeColor=default;align=center;verticalAlign=middle;fontFamily=Helvetica;fontSize=11;fontColor=default;labelBackgroundColor=default;endArrow=none;endFill=0;exitX=0.33;exitY=0.025;exitDx=0;exitDy=0;exitPerimeter=0;" parent="1" source="lqawrA6Ue8hp0J3bOHnK-101" target="lqawrA6Ue8hp0J3bOHnK-117" edge="1">
          <mxGeometry relative="1" as="geometry">
            <Array as="points" />
          </mxGeometry>
        </mxCell>
        <mxCell id="lqawrA6Ue8hp0J3bOHnK-138" style="edgeStyle=none;shape=connector;rounded=0;orthogonalLoop=1;jettySize=auto;html=1;entryX=1;entryY=1;entryDx=0;entryDy=0;strokeColor=default;align=center;verticalAlign=middle;fontFamily=Helvetica;fontSize=11;fontColor=default;labelBackgroundColor=default;endArrow=none;endFill=0;" parent="1" source="lqawrA6Ue8hp0J3bOHnK-120" target="lqawrA6Ue8hp0J3bOHnK-136" edge="1">
          <mxGeometry relative="1" as="geometry" />
        </mxCell>
        <mxCell id="lqawrA6Ue8hp0J3bOHnK-120" value="Натпревар" style="shape=ext;margin=3;double=1;whiteSpace=wrap;html=1;align=center;fontFamily=Helvetica;fontSize=11;fontColor=default;labelBackgroundColor=default;" parent="1" vertex="1">
          <mxGeometry x="552" y="449" width="100" height="40" as="geometry" />
        </mxCell>
        <mxCell id="lqawrA6Ue8hp0J3bOHnK-124" style="edgeStyle=none;shape=connector;rounded=0;orthogonalLoop=1;jettySize=auto;html=1;strokeColor=default;align=center;verticalAlign=middle;fontFamily=Helvetica;fontSize=11;fontColor=default;labelBackgroundColor=default;endArrow=none;endFill=0;entryX=0.25;entryY=0;entryDx=0;entryDy=0;" parent="1" source="lqawrA6Ue8hp0J3bOHnK-121" target="lqawrA6Ue8hp0J3bOHnK-120" edge="1">
          <mxGeometry relative="1" as="geometry">
            <mxPoint x="566" y="444" as="targetPoint" />
          </mxGeometry>
        </mxCell>
        <mxCell id="lqawrA6Ue8hp0J3bOHnK-121" value="почеток" style="ellipse;whiteSpace=wrap;html=1;align=center;fontFamily=Helvetica;fontSize=11;fontColor=default;labelBackgroundColor=default;" parent="1" vertex="1">
          <mxGeometry x="516" y="376" width="100" height="40" as="geometry" />
        </mxCell>
        <mxCell id="lqawrA6Ue8hp0J3bOHnK-125" style="edgeStyle=none;shape=connector;rounded=0;orthogonalLoop=1;jettySize=auto;html=1;strokeColor=default;align=center;verticalAlign=middle;fontFamily=Helvetica;fontSize=11;fontColor=default;labelBackgroundColor=default;endArrow=none;endFill=0;entryX=0.63;entryY=0.03;entryDx=0;entryDy=0;entryPerimeter=0;" parent="1" source="lqawrA6Ue8hp0J3bOHnK-122" target="lqawrA6Ue8hp0J3bOHnK-120" edge="1">
          <mxGeometry relative="1" as="geometry">
            <mxPoint x="600" y="444" as="targetPoint" />
          </mxGeometry>
        </mxCell>
        <mxCell id="lqawrA6Ue8hp0J3bOHnK-122" value="крај" style="ellipse;whiteSpace=wrap;html=1;align=center;fontFamily=Helvetica;fontSize=11;fontColor=default;labelBackgroundColor=default;" parent="1" vertex="1">
          <mxGeometry x="624" y="384" width="100" height="40" as="geometry" />
        </mxCell>
        <mxCell id="lqawrA6Ue8hp0J3bOHnK-126" style="edgeStyle=none;shape=connector;rounded=0;orthogonalLoop=1;jettySize=auto;html=1;entryX=1;entryY=0.25;entryDx=0;entryDy=0;strokeColor=default;align=center;verticalAlign=middle;fontFamily=Helvetica;fontSize=11;fontColor=default;labelBackgroundColor=default;endArrow=none;endFill=0;" parent="1" source="lqawrA6Ue8hp0J3bOHnK-123" target="lqawrA6Ue8hp0J3bOHnK-120" edge="1">
          <mxGeometry relative="1" as="geometry" />
        </mxCell>
        <mxCell id="lqawrA6Ue8hp0J3bOHnK-123" value="резултат" style="ellipse;whiteSpace=wrap;html=1;align=center;fontFamily=Helvetica;fontSize=11;fontColor=default;labelBackgroundColor=default;" parent="1" vertex="1">
          <mxGeometry x="684" y="432" width="100" height="40" as="geometry" />
        </mxCell>
        <mxCell id="lqawrA6Ue8hp0J3bOHnK-129" style="edgeStyle=none;shape=connector;rounded=0;orthogonalLoop=1;jettySize=auto;html=1;entryX=0;entryY=0;entryDx=0;entryDy=0;strokeColor=default;align=center;verticalAlign=middle;fontFamily=Helvetica;fontSize=11;fontColor=default;labelBackgroundColor=default;endArrow=none;endFill=0;exitX=1;exitY=0.5;exitDx=0;exitDy=0;" parent="1" source="lqawrA6Ue8hp0J3bOHnK-128" target="lqawrA6Ue8hp0J3bOHnK-22" edge="1">
          <mxGeometry relative="1" as="geometry" />
        </mxCell>
        <mxCell id="8VeTdL72EI9J1DGAZN1l-3" style="rounded=0;orthogonalLoop=1;jettySize=auto;html=1;endArrow=none;endFill=0;entryX=0;entryY=0.25;entryDx=0;entryDy=0;exitX=0.5;exitY=1;exitDx=0;exitDy=0;" parent="1" source="lqawrA6Ue8hp0J3bOHnK-128" target="lqawrA6Ue8hp0J3bOHnK-22" edge="1">
          <mxGeometry relative="1" as="geometry">
            <mxPoint x="-142" y="300" as="targetPoint" />
          </mxGeometry>
        </mxCell>
        <mxCell id="lqawrA6Ue8hp0J3bOHnK-128" value="игра" style="shape=rhombus;perimeter=rhombusPerimeter;whiteSpace=wrap;html=1;align=center;fontFamily=Helvetica;fontSize=11;fontColor=default;labelBackgroundColor=default;" parent="1" vertex="1">
          <mxGeometry x="-202" y="180" width="120" height="60" as="geometry" />
        </mxCell>
        <mxCell id="lqawrA6Ue8hp0J3bOHnK-134" style="edgeStyle=none;shape=connector;rounded=0;orthogonalLoop=1;jettySize=auto;html=1;strokeColor=default;align=center;verticalAlign=middle;fontFamily=Helvetica;fontSize=11;fontColor=default;labelBackgroundColor=default;endArrow=none;endFill=0;" parent="1" source="lqawrA6Ue8hp0J3bOHnK-133" target="lqawrA6Ue8hp0J3bOHnK-128" edge="1">
          <mxGeometry relative="1" as="geometry" />
        </mxCell>
        <mxCell id="lqawrA6Ue8hp0J3bOHnK-133" value="победи_број_прв" style="ellipse;whiteSpace=wrap;html=1;align=center;fontFamily=Helvetica;fontSize=11;fontColor=default;labelBackgroundColor=default;" parent="1" vertex="1">
          <mxGeometry x="-202" y="112" width="100" height="40" as="geometry" />
        </mxCell>
        <mxCell id="lqawrA6Ue8hp0J3bOHnK-136" value="судел" style="shape=rhombus;perimeter=rhombusPerimeter;whiteSpace=wrap;html=1;align=center;fontFamily=Helvetica;fontSize=11;fontColor=default;labelBackgroundColor=default;" parent="1" vertex="1">
          <mxGeometry x="410" y="432" width="70" height="30" as="geometry" />
        </mxCell>
        <mxCell id="lqawrA6Ue8hp0J3bOHnK-140" value="N" style="text;html=1;align=center;verticalAlign=middle;resizable=0;points=[];autosize=1;strokeColor=none;fillColor=none;fontFamily=Helvetica;fontSize=11;fontColor=default;labelBackgroundColor=default;" parent="1" vertex="1">
          <mxGeometry x="470" y="433" width="36" height="24" as="geometry" />
        </mxCell>
        <mxCell id="lqawrA6Ue8hp0J3bOHnK-142" style="edgeStyle=orthogonalEdgeStyle;shape=connector;rounded=0;orthogonalLoop=1;jettySize=auto;html=1;entryX=0.692;entryY=-0.005;entryDx=0;entryDy=0;entryPerimeter=0;strokeColor=default;align=center;verticalAlign=middle;fontFamily=Helvetica;fontSize=11;fontColor=default;labelBackgroundColor=default;endArrow=none;endFill=0;" parent="1" edge="1">
          <mxGeometry relative="1" as="geometry">
            <mxPoint x="60" y="344.23999999999995" as="sourcePoint" />
            <mxPoint x="-405.79999999999995" y="656" as="targetPoint" />
            <Array as="points">
              <mxPoint x="-72" y="344" />
              <mxPoint x="-72" y="384" />
              <mxPoint x="-408" y="384" />
              <mxPoint x="-408" y="656" />
            </Array>
          </mxGeometry>
        </mxCell>
        <mxCell id="lqawrA6Ue8hp0J3bOHnK-144" style="edgeStyle=orthogonalEdgeStyle;shape=connector;rounded=0;orthogonalLoop=1;jettySize=auto;html=1;entryX=0.854;entryY=0.975;entryDx=0;entryDy=0;entryPerimeter=0;strokeColor=default;align=center;verticalAlign=middle;fontFamily=Helvetica;fontSize=11;fontColor=default;labelBackgroundColor=default;endArrow=none;endFill=0;" parent="1" target="lqawrA6Ue8hp0J3bOHnK-23" edge="1">
          <mxGeometry relative="1" as="geometry">
            <mxPoint x="-375" y="676.04" as="sourcePoint" />
            <Array as="points">
              <mxPoint x="-348" y="676" />
              <mxPoint x="-348" y="576" />
              <mxPoint x="277" y="576" />
            </Array>
          </mxGeometry>
        </mxCell>
        <mxCell id="lqawrA6Ue8hp0J3bOHnK-146" value="тренинг" style="shape=rhombus;perimeter=rhombusPerimeter;whiteSpace=wrap;html=1;align=center;fontFamily=Helvetica;fontSize=11;fontColor=default;labelBackgroundColor=default;" parent="1" vertex="1">
          <mxGeometry x="-468" y="649" width="120" height="60" as="geometry" />
        </mxCell>
        <mxCell id="lqawrA6Ue8hp0J3bOHnK-147" value="датум" style="ellipse;whiteSpace=wrap;html=1;align=center;fontFamily=Helvetica;fontSize=11;fontColor=default;labelBackgroundColor=default;" parent="1" vertex="1">
          <mxGeometry x="-600" y="616" width="100" height="40" as="geometry" />
        </mxCell>
        <mxCell id="lqawrA6Ue8hp0J3bOHnK-148" style="edgeStyle=none;shape=connector;rounded=0;orthogonalLoop=1;jettySize=auto;html=1;entryX=0.062;entryY=1.015;entryDx=0;entryDy=0;entryPerimeter=0;strokeColor=default;align=center;verticalAlign=middle;fontFamily=Helvetica;fontSize=11;fontColor=default;labelBackgroundColor=default;endArrow=none;endFill=0;" parent="1" source="lqawrA6Ue8hp0J3bOHnK-92" target="lqawrA6Ue8hp0J3bOHnK-78" edge="1">
          <mxGeometry relative="1" as="geometry" />
        </mxCell>
        <mxCell id="lqawrA6Ue8hp0J3bOHnK-150" style="edgeStyle=none;shape=connector;rounded=0;orthogonalLoop=1;jettySize=auto;html=1;entryX=0.926;entryY=0.795;entryDx=0;entryDy=0;entryPerimeter=0;strokeColor=default;align=center;verticalAlign=middle;fontFamily=Helvetica;fontSize=11;fontColor=default;labelBackgroundColor=default;endArrow=none;endFill=0;" parent="1" source="lqawrA6Ue8hp0J3bOHnK-146" target="lqawrA6Ue8hp0J3bOHnK-147" edge="1">
          <mxGeometry relative="1" as="geometry" />
        </mxCell>
        <mxCell id="lqawrA6Ue8hp0J3bOHnK-157" style="edgeStyle=none;shape=connector;rounded=0;orthogonalLoop=1;jettySize=auto;html=1;strokeColor=default;align=center;verticalAlign=middle;fontFamily=Helvetica;fontSize=11;fontColor=default;labelBackgroundColor=default;endArrow=none;endFill=0;" parent="1" source="lqawrA6Ue8hp0J3bOHnK-151" target="lqawrA6Ue8hp0J3bOHnK-147" edge="1">
          <mxGeometry relative="1" as="geometry" />
        </mxCell>
        <mxCell id="lqawrA6Ue8hp0J3bOHnK-151" value="ден" style="ellipse;whiteSpace=wrap;html=1;align=center;fontFamily=Helvetica;fontSize=11;fontColor=default;labelBackgroundColor=default;" parent="1" vertex="1">
          <mxGeometry x="-648" y="561" width="100" height="40" as="geometry" />
        </mxCell>
        <mxCell id="lqawrA6Ue8hp0J3bOHnK-152" value="месец" style="ellipse;whiteSpace=wrap;html=1;align=center;fontFamily=Helvetica;fontSize=11;fontColor=default;labelBackgroundColor=default;" parent="1" vertex="1">
          <mxGeometry x="-540" y="563" width="100" height="40" as="geometry" />
        </mxCell>
        <mxCell id="lqawrA6Ue8hp0J3bOHnK-153" value="година" style="ellipse;whiteSpace=wrap;html=1;align=center;fontFamily=Helvetica;fontSize=11;fontColor=default;labelBackgroundColor=default;" parent="1" vertex="1">
          <mxGeometry x="-700" y="660" width="100" height="40" as="geometry" />
        </mxCell>
        <mxCell id="lqawrA6Ue8hp0J3bOHnK-155" style="edgeStyle=none;shape=connector;rounded=0;orthogonalLoop=1;jettySize=auto;html=1;strokeColor=default;align=center;verticalAlign=middle;fontFamily=Helvetica;fontSize=11;fontColor=default;labelBackgroundColor=default;endArrow=none;endFill=0;" parent="1" source="lqawrA6Ue8hp0J3bOHnK-154" edge="1">
          <mxGeometry relative="1" as="geometry">
            <mxPoint x="-550" y="660" as="targetPoint" />
          </mxGeometry>
        </mxCell>
        <mxCell id="lqawrA6Ue8hp0J3bOHnK-154" value="време" style="ellipse;whiteSpace=wrap;html=1;align=center;fontFamily=Helvetica;fontSize=11;fontColor=default;labelBackgroundColor=default;" parent="1" vertex="1">
          <mxGeometry x="-600" y="700" width="100" height="40" as="geometry" />
        </mxCell>
        <mxCell id="lqawrA6Ue8hp0J3bOHnK-156" style="edgeStyle=none;shape=connector;rounded=0;orthogonalLoop=1;jettySize=auto;html=1;entryX=0.046;entryY=0.675;entryDx=0;entryDy=0;entryPerimeter=0;strokeColor=default;align=center;verticalAlign=middle;fontFamily=Helvetica;fontSize=11;fontColor=default;labelBackgroundColor=default;endArrow=none;endFill=0;" parent="1" source="lqawrA6Ue8hp0J3bOHnK-153" target="lqawrA6Ue8hp0J3bOHnK-147" edge="1">
          <mxGeometry relative="1" as="geometry" />
        </mxCell>
        <mxCell id="lqawrA6Ue8hp0J3bOHnK-158" style="edgeStyle=none;shape=connector;rounded=0;orthogonalLoop=1;jettySize=auto;html=1;entryX=0.918;entryY=0.235;entryDx=0;entryDy=0;entryPerimeter=0;strokeColor=default;align=center;verticalAlign=middle;fontFamily=Helvetica;fontSize=11;fontColor=default;labelBackgroundColor=default;endArrow=none;endFill=0;" parent="1" source="lqawrA6Ue8hp0J3bOHnK-152" target="lqawrA6Ue8hp0J3bOHnK-147" edge="1">
          <mxGeometry relative="1" as="geometry" />
        </mxCell>
        <mxCell id="lqawrA6Ue8hp0J3bOHnK-160" value="N" style="text;html=1;align=center;verticalAlign=middle;resizable=0;points=[];autosize=1;strokeColor=none;fillColor=none;fontFamily=Helvetica;fontSize=11;fontColor=default;labelBackgroundColor=default;" parent="1" vertex="1">
          <mxGeometry x="-442" y="613" width="36" height="24" as="geometry" />
        </mxCell>
        <mxCell id="lqawrA6Ue8hp0J3bOHnK-161" value="M" style="text;html=1;align=center;verticalAlign=middle;resizable=0;points=[];autosize=1;strokeColor=none;fillColor=none;fontFamily=Helvetica;fontSize=11;fontColor=default;labelBackgroundColor=default;" parent="1" vertex="1">
          <mxGeometry x="-346" y="649" width="36" height="24" as="geometry" />
        </mxCell>
        <mxCell id="lqawrA6Ue8hp0J3bOHnK-162" value="P" style="text;html=1;align=center;verticalAlign=middle;resizable=0;points=[];autosize=1;strokeColor=none;fillColor=none;fontFamily=Helvetica;fontSize=11;fontColor=default;labelBackgroundColor=default;" parent="1" vertex="1">
          <mxGeometry x="-406" y="709" width="36" height="24" as="geometry" />
        </mxCell>
        <mxCell id="8VeTdL72EI9J1DGAZN1l-4" value="втор" style="text;html=1;align=center;verticalAlign=middle;resizable=0;points=[];autosize=1;strokeColor=none;fillColor=none;" parent="1" vertex="1">
          <mxGeometry x="-112" y="265" width="48" height="24" as="geometry" />
        </mxCell>
        <mxCell id="8VeTdL72EI9J1DGAZN1l-5" value="прв" style="text;html=1;align=center;verticalAlign=middle;resizable=0;points=[];autosize=1;strokeColor=none;fillColor=none;" parent="1" vertex="1">
          <mxGeometry x="-64" y="217" width="48" height="24" as="geometry" />
        </mxCell>
        <mxCell id="8VeTdL72EI9J1DGAZN1l-6" value="M" style="text;html=1;align=center;verticalAlign=middle;resizable=0;points=[];autosize=1;strokeColor=none;fillColor=none;" parent="1" vertex="1">
          <mxGeometry x="38" y="289" width="36" height="24" as="geometry" />
        </mxCell>
        <mxCell id="8VeTdL72EI9J1DGAZN1l-7" value="N" style="text;html=1;align=center;verticalAlign=middle;resizable=0;points=[];autosize=1;strokeColor=none;fillColor=none;" parent="1" vertex="1">
          <mxGeometry x="2" y="313" width="36" height="24" as="geometry" />
        </mxCell>
        <mxCell id="8VeTdL72EI9J1DGAZN1l-8" value="&lt;span style=&quot;font-size: 11px; background-color: rgb(24, 20, 29);&quot;&gt;Ранг_место&lt;/span&gt;" style="shape=ext;margin=3;double=1;whiteSpace=wrap;html=1;align=center;" parent="1" vertex="1">
          <mxGeometry x="-98" y="637" width="100" height="40" as="geometry" />
        </mxCell>
        <mxCell id="8VeTdL72EI9J1DGAZN1l-9" value="&lt;span style=&quot;font-size: 11px; background-color: rgb(24, 20, 29);&quot;&gt;спонзор&lt;/span&gt;" style="ellipse;shape=doubleEllipse;margin=3;whiteSpace=wrap;html=1;align=center;" parent="1" vertex="1">
          <mxGeometry x="696" y="720" width="100" height="40" as="geometry" />
        </mxCell>
        <mxCell id="8VeTdL72EI9J1DGAZN1l-11" value="&lt;u&gt;година&lt;/u&gt;" style="ellipse;whiteSpace=wrap;html=1;align=center;" parent="1" vertex="1">
          <mxGeometry x="724" y="620" width="100" height="40" as="geometry" />
        </mxCell>
        <mxCell id="8VeTdL72EI9J1DGAZN1l-12" value="период" style="ellipse;whiteSpace=wrap;html=1;align=center;" parent="1" vertex="1">
          <mxGeometry x="552" y="740" width="100" height="40" as="geometry" />
        </mxCell>
        <mxCell id="8VeTdL72EI9J1DGAZN1l-13" style="rounded=0;orthogonalLoop=1;jettySize=auto;html=1;entryX=0.19;entryY=0.975;entryDx=0;entryDy=0;entryPerimeter=0;endArrow=none;endFill=0;" parent="1" source="8VeTdL72EI9J1DGAZN1l-12" target="lqawrA6Ue8hp0J3bOHnK-101" edge="1">
          <mxGeometry relative="1" as="geometry" />
        </mxCell>
        <mxCell id="8VeTdL72EI9J1DGAZN1l-14" value="од" style="ellipse;whiteSpace=wrap;html=1;align=center;" parent="1" vertex="1">
          <mxGeometry x="498" y="804" width="100" height="40" as="geometry" />
        </mxCell>
        <mxCell id="8VeTdL72EI9J1DGAZN1l-17" style="edgeStyle=none;shape=connector;rounded=0;orthogonalLoop=1;jettySize=auto;html=1;entryX=1;entryY=1;entryDx=0;entryDy=0;strokeColor=default;align=center;verticalAlign=middle;fontFamily=Helvetica;fontSize=11;fontColor=default;labelBackgroundColor=default;endArrow=none;endFill=0;" parent="1" source="8VeTdL72EI9J1DGAZN1l-15" target="8VeTdL72EI9J1DGAZN1l-12" edge="1">
          <mxGeometry relative="1" as="geometry" />
        </mxCell>
        <mxCell id="8VeTdL72EI9J1DGAZN1l-15" value="до" style="ellipse;whiteSpace=wrap;html=1;align=center;" parent="1" vertex="1">
          <mxGeometry x="616" y="804" width="100" height="40" as="geometry" />
        </mxCell>
        <mxCell id="8VeTdL72EI9J1DGAZN1l-16" style="edgeStyle=none;shape=connector;rounded=0;orthogonalLoop=1;jettySize=auto;html=1;entryX=0.23;entryY=0.95;entryDx=0;entryDy=0;entryPerimeter=0;strokeColor=default;align=center;verticalAlign=middle;fontFamily=Helvetica;fontSize=11;fontColor=default;labelBackgroundColor=default;endArrow=none;endFill=0;" parent="1" source="8VeTdL72EI9J1DGAZN1l-14" target="8VeTdL72EI9J1DGAZN1l-12" edge="1">
          <mxGeometry relative="1" as="geometry" />
        </mxCell>
        <mxCell id="8VeTdL72EI9J1DGAZN1l-22" style="edgeStyle=none;shape=link;rounded=0;orthogonalLoop=1;jettySize=auto;html=1;strokeColor=default;align=center;verticalAlign=middle;fontFamily=Helvetica;fontSize=11;fontColor=default;labelBackgroundColor=default;endArrow=none;endFill=0;" parent="1" source="8VeTdL72EI9J1DGAZN1l-19" target="lqawrA6Ue8hp0J3bOHnK-120" edge="1">
          <mxGeometry relative="1" as="geometry" />
        </mxCell>
        <mxCell id="8VeTdL72EI9J1DGAZN1l-19" value="прв_играч" style="shape=rhombus;perimeter=rhombusPerimeter;whiteSpace=wrap;html=1;align=center;fontFamily=Helvetica;fontSize=11;fontColor=default;labelBackgroundColor=default;" parent="1" vertex="1">
          <mxGeometry x="186.24" y="452.5" width="92" height="33" as="geometry" />
        </mxCell>
        <mxCell id="8VeTdL72EI9J1DGAZN1l-23" style="edgeStyle=none;shape=link;rounded=0;orthogonalLoop=1;jettySize=auto;html=1;strokeColor=default;align=center;verticalAlign=middle;fontFamily=Helvetica;fontSize=11;fontColor=default;labelBackgroundColor=default;endArrow=none;endFill=0;" parent="1" source="8VeTdL72EI9J1DGAZN1l-21" target="lqawrA6Ue8hp0J3bOHnK-120" edge="1">
          <mxGeometry relative="1" as="geometry" />
        </mxCell>
        <mxCell id="8VeTdL72EI9J1DGAZN1l-21" value="втор_играч" style="shape=rhombus;perimeter=rhombusPerimeter;whiteSpace=wrap;html=1;align=center;fontFamily=Helvetica;fontSize=11;fontColor=default;labelBackgroundColor=default;" parent="1" vertex="1">
          <mxGeometry x="192" y="496" width="92" height="33" as="geometry" />
        </mxCell>
        <mxCell id="8VeTdL72EI9J1DGAZN1l-24" value="тип" style="ellipse;whiteSpace=wrap;html=1;align=center;fontFamily=Helvetica;fontSize=11;fontColor=default;labelBackgroundColor=default;" parent="1" vertex="1">
          <mxGeometry x="312" y="516" width="96" height="34" as="geometry" />
        </mxCell>
        <mxCell id="8VeTdL72EI9J1DGAZN1l-26" style="edgeStyle=none;shape=connector;rounded=0;orthogonalLoop=1;jettySize=auto;html=1;entryX=0;entryY=1;entryDx=0;entryDy=0;strokeColor=default;align=center;verticalAlign=middle;fontFamily=Helvetica;fontSize=11;fontColor=default;labelBackgroundColor=default;endArrow=none;endFill=0;" parent="1" source="8VeTdL72EI9J1DGAZN1l-25" target="lqawrA6Ue8hp0J3bOHnK-69" edge="1">
          <mxGeometry relative="1" as="geometry" />
        </mxCell>
        <mxCell id="8VeTdL72EI9J1DGAZN1l-27" style="edgeStyle=none;shape=connector;rounded=0;orthogonalLoop=1;jettySize=auto;html=1;entryX=0.42;entryY=0.975;entryDx=0;entryDy=0;strokeColor=default;align=center;verticalAlign=middle;fontFamily=Helvetica;fontSize=11;fontColor=default;labelBackgroundColor=default;endArrow=none;endFill=0;entryPerimeter=0;" parent="1" target="lqawrA6Ue8hp0J3bOHnK-22" edge="1">
          <mxGeometry relative="1" as="geometry">
            <mxPoint x="84" y="612" as="sourcePoint" />
          </mxGeometry>
        </mxCell>
        <mxCell id="8VeTdL72EI9J1DGAZN1l-25" value="најдобар" style="shape=rhombus;perimeter=rhombusPerimeter;whiteSpace=wrap;html=1;align=center;fontFamily=Helvetica;fontSize=11;fontColor=default;labelBackgroundColor=default;" parent="1" vertex="1">
          <mxGeometry x="60" y="592" width="120" height="60" as="geometry" />
        </mxCell>
        <mxCell id="8VeTdL72EI9J1DGAZN1l-28" value="број_победи" style="ellipse;whiteSpace=wrap;html=1;align=center;fontFamily=Helvetica;fontSize=11;fontColor=default;labelBackgroundColor=default;" parent="1" vertex="1">
          <mxGeometry x="36" y="660" width="100" height="40" as="geometry" />
        </mxCell>
        <mxCell id="8VeTdL72EI9J1DGAZN1l-29" style="edgeStyle=none;shape=connector;rounded=0;orthogonalLoop=1;jettySize=auto;html=1;entryX=0.39;entryY=0.967;entryDx=0;entryDy=0;entryPerimeter=0;strokeColor=default;align=center;verticalAlign=middle;fontFamily=Helvetica;fontSize=11;fontColor=default;labelBackgroundColor=default;endArrow=none;endFill=0;" parent="1" source="8VeTdL72EI9J1DGAZN1l-28" target="8VeTdL72EI9J1DGAZN1l-25" edge="1">
          <mxGeometry relative="1" as="geometry" />
        </mxCell>
        <mxCell id="8VeTdL72EI9J1DGAZN1l-30" value="1" style="text;html=1;align=center;verticalAlign=middle;resizable=0;points=[];autosize=1;strokeColor=none;fillColor=none;fontFamily=Helvetica;fontSize=11;fontColor=default;labelBackgroundColor=default;" parent="1" vertex="1">
          <mxGeometry x="60" y="584" width="36" height="24" as="geometry" />
        </mxCell>
        <mxCell id="8VeTdL72EI9J1DGAZN1l-31" value="N" style="text;html=1;align=center;verticalAlign=middle;resizable=0;points=[];autosize=1;strokeColor=none;fillColor=none;fontFamily=Helvetica;fontSize=11;fontColor=default;labelBackgroundColor=default;" parent="1" vertex="1">
          <mxGeometry x="164" y="596" width="36" height="24" as="geometry" />
        </mxCell>
        <mxCell id="8VeTdL72EI9J1DGAZN1l-32" value="N" style="text;html=1;align=center;verticalAlign=middle;resizable=0;points=[];autosize=1;strokeColor=none;fillColor=none;fontFamily=Helvetica;fontSize=11;fontColor=default;labelBackgroundColor=default;" parent="1" vertex="1">
          <mxGeometry x="266" y="445" width="36" height="24" as="geometry" />
        </mxCell>
        <mxCell id="8VeTdL72EI9J1DGAZN1l-33" value="N" style="text;html=1;align=center;verticalAlign=middle;resizable=0;points=[];autosize=1;strokeColor=none;fillColor=none;fontFamily=Helvetica;fontSize=11;fontColor=default;labelBackgroundColor=default;" parent="1" vertex="1">
          <mxGeometry x="278" y="481" width="36" height="24" as="geometry" />
        </mxCell>
        <mxCell id="8VeTdL72EI9J1DGAZN1l-34" value="1" style="text;html=1;align=center;verticalAlign=middle;resizable=0;points=[];autosize=1;strokeColor=none;fillColor=none;fontFamily=Helvetica;fontSize=11;fontColor=default;labelBackgroundColor=default;" parent="1" vertex="1">
          <mxGeometry x="158" y="445" width="36" height="24" as="geometry" />
        </mxCell>
        <mxCell id="8VeTdL72EI9J1DGAZN1l-35" value="1" style="text;html=1;align=center;verticalAlign=middle;resizable=0;points=[];autosize=1;strokeColor=none;fillColor=none;fontFamily=Helvetica;fontSize=11;fontColor=default;labelBackgroundColor=default;" parent="1" vertex="1">
          <mxGeometry x="158" y="493" width="36" height="24" as="geometry" />
        </mxCell>
        <mxCell id="8VeTdL72EI9J1DGAZN1l-36" value="1" style="text;html=1;align=center;verticalAlign=middle;resizable=0;points=[];autosize=1;strokeColor=none;fillColor=none;fontFamily=Helvetica;fontSize=11;fontColor=default;labelBackgroundColor=default;" parent="1" vertex="1">
          <mxGeometry x="410" y="409" width="36" height="24" as="geometry" />
        </mxCell>
        <mxCell id="9CEesW9TjwCm3R8E8zif-1" value="победи_број_втор" style="ellipse;whiteSpace=wrap;html=1;align=center;fontFamily=Helvetica;fontSize=11;fontColor=default;labelBackgroundColor=default;" parent="1" vertex="1">
          <mxGeometry x="-348" y="177" width="100" height="40" as="geometry" />
        </mxCell>
        <mxCell id="9CEesW9TjwCm3R8E8zif-2" style="rounded=0;orthogonalLoop=1;jettySize=auto;html=1;entryX=0.058;entryY=0.467;entryDx=0;entryDy=0;entryPerimeter=0;endArrow=none;endFill=0;" parent="1" source="9CEesW9TjwCm3R8E8zif-1" target="lqawrA6Ue8hp0J3bOHnK-128" edge="1">
          <mxGeometry relative="1" as="geometry" />
        </mxCell>
        <mxCell id="okDiEkAki712-m84FLTY-1" value="N" style="text;html=1;align=center;verticalAlign=middle;resizable=0;points=[];autosize=1;strokeColor=none;fillColor=none;" parent="1" vertex="1">
          <mxGeometry x="592" y="505" width="36" height="24" as="geometry" />
        </mxCell>
        <mxCell id="okDiEkAki712-m84FLTY-2" value="1" style="text;html=1;align=center;verticalAlign=middle;resizable=0;points=[];autosize=1;strokeColor=none;fillColor=none;" parent="1" vertex="1">
          <mxGeometry x="636" y="640" width="36" height="24" as="geometry" />
        </mxCell>
        <mxCell id="WKA5SGnIilvyst779cXG-4" style="rounded=0;orthogonalLoop=1;jettySize=auto;html=1;entryX=1;entryY=0.5;entryDx=0;entryDy=0;endArrow=none;endFill=0;" parent="1" source="WKA5SGnIilvyst779cXG-1" target="WKA5SGnIilvyst779cXG-3" edge="1">
          <mxGeometry relative="1" as="geometry" />
        </mxCell>
        <mxCell id="WKA5SGnIilvyst779cXG-1" value="Тренер-Играч" style="whiteSpace=wrap;html=1;align=center;" parent="1" vertex="1">
          <mxGeometry x="126.24" y="229.22" width="100" height="40" as="geometry" />
        </mxCell>
        <mxCell id="WKA5SGnIilvyst779cXG-3" value="о" style="ellipse;whiteSpace=wrap;html=1;align=center;fontFamily=Helvetica;fontSize=11;fontColor=default;labelBackgroundColor=default;" parent="1" vertex="1">
          <mxGeometry x="126.24000000000001" y="280.24" width="24" height="28" as="geometry" />
        </mxCell>
        <mxCell id="WKA5SGnIilvyst779cXG-6" value="" style="shape=step;perimeter=stepPerimeter;whiteSpace=wrap;html=1;fixedSize=1;fontFamily=Helvetica;fontSize=11;fontColor=default;labelBackgroundColor=default;rotation=45;" parent="1" vertex="1">
          <mxGeometry x="181.60000000000002" y="192.22000000000003" width="9.24" height="20" as="geometry" />
        </mxCell>
      </root>
    </mxGraphModel>
  </diagram>
</mxfile>
